<?xml version="1.0" standalone="no"?>
<!DOCTYPE svg PUBLIC "-//W3C//DTD SVG 20010904//EN"
 "http://www.w3.org/TR/2001/REC-SVG-20010904/DTD/svg10.dtd">
<svg version="1.0" xmlns="http://www.w3.org/2000/svg"
 width="1995.000000pt" height="1800.000000pt" viewBox="0 0 1995.000000 1800.000000"
 preserveAspectRatio="xMidYMid meet">
<metadata>
Created by potrace 1.16, written by Peter Selinger 2001-2019
</metadata>
<g transform="translate(0.000000,1800.000000) scale(0.100000,-0.100000)"
fill="#000000" stroke="none">
<path d="M11270 11079 c-301 -33 -618 -142 -873 -300 -261 -162 -495 -415
-627 -679 -98 -195 -104 -359 -19 -537 35 -74 128 -177 199 -223 178 -114 423
-114 601 1 87 57 153 132 206 234 64 125 110 190 184 261 113 107 235 175 384
215 113 30 316 30 430 0 112 -29 286 -117 375 -188 162 -129 290 -325 356
-548 35 -118 45 -349 20 -503 -71 -453 -353 -772 -820 -927 -167 -56 -256 -68
-451 -62 -93 3 -213 13 -265 22 -278 50 -554 174 -760 340 -36 29 -285 251
-555 494 -287 259 -525 466 -575 500 -321 215 -715 332 -1075 318 -212 -9
-373 -44 -569 -123 -253 -103 -439 -255 -587 -479 -188 -284 -322 -732 -323
-1085 -1 -120 0 -128 31 -192 44 -93 100 -151 191 -196 l76 -37 166 0 165 0
66 32 c36 18 88 55 116 82 80 81 102 137 134 351 33 219 44 277 65 350 57 200
230 374 424 425 81 22 220 19 308 -5 222 -62 409 -206 740 -571 310 -344 648
-627 966 -813 163 -95 299 -154 470 -205 717 -212 1432 -136 1976 208 427 270
802 783 943 1291 52 185 62 267 61 510 0 247 -9 324 -66 525 -95 342 -248 609
-492 863 -341 354 -750 578 -1173 641 -105 16 -324 21 -423 10z"/>
</g>
</svg>
