<?xml version="1.0" encoding="UTF-8"?>
<svg version="1.1" xmlns="http://www.w3.org/2000/svg" width="1995" height="1800">
<path d="M0 0 C658.35 0 1316.7 0 1995 0 C1995 594 1995 1188 1995 1800 C1336.65 1800 678.3 1800 0 1800 C0 1206 0 612 0 0 Z " fill="#FEFEFE" transform="translate(0,0)"/>
<path d="M0 0 C1.16517364 1.00000888 2.32934626 2.00118614 3.4921875 3.00390625 C4.35585937 3.73738281 5.21953125 4.47085938 6.109375 5.2265625 C8.63031705 7.42920378 11.06686453 9.69604906 13.4921875 12.00390625 C14.10674805 12.58591797 14.72130859 13.16792969 15.35449219 13.76757812 C42.70003241 39.8343236 62.07974351 71.93866903 71.8046875 108.56640625 C72.03494629 109.4262915 72.26520508 110.28617676 72.50244141 111.17211914 C76.45899781 126.91561412 78.05295173 142.49182955 77.9296875 158.69140625 C77.92462692 159.99427078 77.92462692 159.99427078 77.91946411 161.32345581 C77.83997616 175.51636285 76.97393206 189.18690416 73.4921875 203.00390625 C73.25612793 203.94363281 73.02006836 204.88335938 72.77685547 205.8515625 C62.76874662 244.20630072 41.95117736 281.27210194 13.4921875 309.00390625 C12.7084375 309.78765625 11.9246875 310.57140625 11.1171875 311.37890625 C10.2509375 312.24515625 9.3846875 313.11140625 8.4921875 314.00390625 C7.92757812 314.61492187 7.36296875 315.2259375 6.78125 315.85546875 C-10.00348298 333.54053223 -32.1592675 346.62007147 -54.5078125 356.00390625 C-55.22694824 356.30635254 -55.94608398 356.60879883 -56.68701172 356.92041016 C-96.67260784 373.38713379 -141.13304308 375.50601708 -183.5078125 369.00390625 C-184.27432129 368.88644043 -185.04083008 368.76897461 -185.83056641 368.64794922 C-190.42311982 367.91540123 -194.96804186 367.00666683 -199.5078125 366.00390625 C-200.30461426 365.83133301 -201.10141602 365.65875977 -201.92236328 365.48095703 C-250.44238774 354.85833806 -291.78224051 328.99324859 -327.91796875 295.3828125 C-329.31157444 294.10271315 -330.71232467 292.82934344 -332.15161133 291.60083008 C-338.19626045 286.44022758 -343.80281185 280.86081395 -349.40795898 275.23413086 C-351.0670857 273.56964348 -352.73149301 271.91057178 -354.39648438 270.25195312 C-359.44051145 265.21112855 -364.40900277 260.14488449 -369.04272461 254.71850586 C-371.29556189 252.08199924 -373.65446896 249.55105455 -376.0078125 247.00390625 C-379.13441264 243.61839869 -382.21331432 240.2056604 -385.1953125 236.69140625 C-388.66050016 232.7218955 -392.43722649 229.34218262 -396.5078125 226.00390625 C-397.00168457 225.59237305 -397.49555664 225.18083984 -398.00439453 224.75683594 C-410.07781961 214.7383851 -422.46579772 206.94456802 -437.5078125 202.00390625 C-438.2503125 201.75769531 -438.9928125 201.51148438 -439.7578125 201.2578125 C-453.74554704 197.41648389 -470.49180215 199.63487549 -483.10546875 206.50390625 C-498.31819835 216.0025862 -508.50255208 230.2701278 -512.6953125 247.69140625 C-514.88810387 257.52532141 -516.18084567 267.55284619 -517.578125 277.5234375 C-517.88626878 279.68384437 -518.19614665 281.84400467 -518.5078125 284.00390625 C-518.66193604 285.08430176 -518.81605957 286.16469727 -518.97485352 287.27783203 C-520.67545606 298.42172981 -524.8855197 308.40200313 -533.5078125 316.00390625 C-536.70978722 318.30450675 -539.96264597 320.27964304 -543.5078125 322.00390625 C-544.61769531 322.54402344 -545.72757813 323.08414062 -546.87109375 323.640625 C-552.62554597 325.72609948 -558.64332163 325.5250466 -564.69677734 325.50488281 C-566.74071086 325.50391435 -568.78082879 325.54553994 -570.82421875 325.58984375 C-584.29437062 325.71523528 -593.62706239 321.82325815 -603.16015625 312.55078125 C-610.72333871 304.34579795 -614.08216133 295.05937554 -613.8828125 283.94140625 C-613.87193604 283.08417969 -613.86105957 282.22695313 -613.84985352 281.34375 C-612.69056519 232.62739225 -595.30170983 182.12016518 -559.734375 147.921875 C-530.40228047 120.75156481 -488.7868548 111.42496957 -449.87988281 112.80419922 C-434.01486377 113.74378694 -418.41555516 116.48431857 -403.5078125 122.00390625 C-402.23644812 122.43975562 -400.96429294 122.87330423 -399.69140625 123.3046875 C-376.36078247 131.40094691 -355.22404469 143.80873971 -337.5078125 161.00390625 C-336.18404455 162.18141519 -334.85162453 163.34932489 -333.5078125 164.50390625 C-329.57692 167.91067975 -325.75584677 171.4339341 -321.9296875 174.95703125 C-319.15287193 177.50945768 -316.35800533 180.03373913 -313.5078125 182.50390625 C-309.57692 185.91067975 -305.75584677 189.4339341 -301.9296875 192.95703125 C-299.15287193 195.50945768 -296.35800533 198.03373913 -293.5078125 200.50390625 C-289.57692 203.91067975 -285.75584677 207.4339341 -281.9296875 210.95703125 C-278.53549866 214.0769422 -275.09364473 217.13017092 -271.609375 220.1484375 C-269.50942343 222.00248396 -267.44761525 223.89433645 -265.39160156 225.796875 C-225.54707189 262.62405194 -182.47229154 281.42546806 -127.63378906 280.12695312 C-99.9983986 279.03914956 -72.47814491 266.6522058 -51.5078125 249.00390625 C-50.49203125 248.18921875 -49.47625 247.37453125 -48.4296875 246.53515625 C-43.81181319 242.53464481 -40.24124623 237.81807079 -36.5078125 233.00390625 C-35.89679687 232.23175781 -35.28578125 231.45960938 -34.65625 230.6640625 C-27.21787493 220.72924648 -22.17432227 209.09828893 -18.6328125 197.25390625 C-18.34639893 196.30052368 -18.34639893 196.30052368 -18.05419922 195.32788086 C-14.97358417 184.26922691 -14.14206645 173.12789798 -14.1953125 161.69140625 C-14.20095215 160.4175708 -14.2065918 159.14373535 -14.21240234 157.83129883 C-14.5453092 131.99476057 -23.49516145 108.52257022 -40.5078125 89.00390625 C-41.04664063 88.32199219 -41.58546875 87.64007812 -42.140625 86.9375 C-54.4880473 71.69708262 -75.56500789 61.09344354 -94.65234375 57.39453125 C-119.78673352 54.8479872 -144.38823835 57.61398105 -164.5078125 74.00390625 C-175.14613692 82.7332062 -182.04478576 91.90523979 -188.4453125 104.00390625 C-196.906563 119.91701341 -206.94011348 130.25395213 -224.5078125 136.00390625 C-225.1884375 136.22949219 -225.8690625 136.45507812 -226.5703125 136.6875 C-241.1997942 140.705066 -255.85598425 137.91811164 -268.8828125 130.62890625 C-281.95033539 122.47669013 -290.9470319 110.86716447 -295.5078125 96.00390625 C-299.67267055 72.7881814 -291.62726499 53.99978017 -278.5078125 35.00390625 C-272.98148861 27.21219591 -267.08345692 19.93052698 -260.5078125 13.00390625 C-260.0442334 12.50777832 -259.5806543 12.01165039 -259.10302734 11.50048828 C-231.93073911 -17.43519329 -194.12208588 -35.33795573 -155.5078125 -42.99609375 C-154.26789551 -43.24383545 -154.26789551 -43.24383545 -153.00292969 -43.49658203 C-98.02284264 -53.99949475 -42.21692605 -35.71502793 0 0 Z " fill="#413973" transform="translate(1265.5078125,736.99609375)"/>
</svg>
